<svg width="27" height="27" viewBox="0 0 27 27" fill="none" xmlns="http://www.w3.org/2000/svg">
<path d="M13.4866 0C6.03454 0 0 6.04804 0 13.5001C0 20.9521 6.03454 27.0002 13.4866 27.0002C20.9521 27.0002 27.0002 20.9521 27.0002 13.5001C27.0002 6.04804 20.9521 0 13.4866 0ZM13.5001 24.3001C7.53305 24.3001 2.70002 19.4671 2.70002 13.5001C2.70002 7.53305 7.53305 2.70002 13.5001 2.70002C19.4671 2.70002 24.3001 7.53305 24.3001 13.5001C24.3001 19.4671 19.4671 24.3001 13.5001 24.3001ZM14.1751 6.75004H12.1501V14.8501L19.2376 19.1026L20.2501 17.4421L14.1751 13.8376V6.75004Z" fill="#94A3B8"/>
</svg>
