<svg width="16" height="16" viewBox="0 0 16 16" fill="none" xmlns="http://www.w3.org/2000/svg">
<path d="M11.3333 1.33334H4.66667C2.82572 1.33334 1.33333 2.82573 1.33333 4.66668V11.3333C1.33333 13.1743 2.82572 14.6667 4.66667 14.6667H11.3333C13.1743 14.6667 14.6667 13.1743 14.6667 11.3333V4.66668C14.6667 2.82573 13.1743 1.33334 11.3333 1.33334Z" stroke="#020617" stroke-width="1.67" stroke-linecap="round" stroke-linejoin="round"/>
<path d="M10.6667 7.58001C10.7489 8.13496 10.6542 8.70218 10.3958 9.19954C10.1375 9.69689 9.72877 10.0988 9.22674 10.3487C8.72472 10.5986 8.15556 10.6841 7.60246 10.5929C7.04935 10.5017 6.53997 10.2384 6.14323 9.84168C5.74649 9.44494 5.48319 8.93556 5.39198 8.38245C5.30078 7.82935 5.38632 7.26019 5.63622 6.75817C5.88612 6.25614 6.28799 5.84743 6.78535 5.58905C7.28271 5.33067 7.84993 5.23602 8.40488 5.31824C8.97223 5.40224 9.49561 5.66846 9.90163 6.07448C10.3076 6.4805 10.5739 7.00387 10.6579 7.57122" stroke="#020617" stroke-width="1.67" stroke-linecap="round" stroke-linejoin="round"/>
<path d="M11.6667 4.33334H11.6733" stroke="#020617" stroke-width="1.67" stroke-linecap="round" stroke-linejoin="round"/>
</svg> 