<svg width="16" height="16" viewBox="0 0 16 16" fill="none" xmlns="http://www.w3.org/2000/svg">
<path d="M13.3333 1.33334H2.66667C1.93029 1.33334 1.33333 1.9303 1.33333 2.66668V13.3333C1.33333 14.0697 1.93029 14.6667 2.66667 14.6667H13.3333C14.0697 14.6667 14.6667 14.0697 14.6667 13.3333V2.66668C14.6667 1.9303 14.0697 1.33334 13.3333 1.33334Z" stroke="#020617" stroke-width="1.5" stroke-linecap="round" stroke-linejoin="round"/>
<path d="M5.33333 7.33334V11.3333" stroke="#020617" stroke-width="1.5" stroke-linecap="round" stroke-linejoin="round"/>
<path d="M5.33333 4.66666V4.67666" stroke="#020617" stroke-width="1.5" stroke-linecap="round" stroke-linejoin="round"/>
<path d="M8.66667 11.3333V7.33334" stroke="#020617" stroke-width="1.5" stroke-linecap="round" stroke-linejoin="round"/>
<path d="M12 11.3333V9.00001C12 8.29277 11.7191 7.61449 11.219 7.11439C10.7189 6.61429 10.0406 6.33334 9.33333 6.33334C8.62609 6.33334 7.94781 6.61429 7.44771 7.11439C6.94762 7.61449 6.66667 8.29277 6.66667 9.00001" stroke="#020617" stroke-width="1.5" stroke-linecap="round" stroke-linejoin="round"/>
</svg> 