<svg width="30" height="30" viewBox="0 0 30 30" fill="none" xmlns="http://www.w3.org/2000/svg">
<path d="M21.4409 18.868H20.0858L19.6056 18.4049C21.2865 16.4495 22.2985 13.9109 22.2985 11.1493C22.2985 4.99144 17.3071 0 11.1493 0C4.99144 0 0 4.99144 0 11.1493C0 17.3071 4.99144 22.2985 11.1493 22.2985C13.9109 22.2985 16.4495 21.2865 18.4049 19.6056L18.868 20.0858V21.4409L27.4443 30.0001L30.0001 27.4443L21.4409 18.868ZM11.1493 18.868C6.87824 18.868 3.43054 15.4203 3.43054 11.1493C3.43054 6.87824 6.87824 3.43054 11.1493 3.43054C15.4203 3.43054 18.868 6.87824 18.868 11.1493C18.868 15.4203 15.4203 18.868 11.1493 18.868Z" fill="#94A3B8"/>
</svg>
