<svg width="27" height="26" viewBox="0 0 27 26" fill="none" xmlns="http://www.w3.org/2000/svg">
<path d="M11.1631 1.28392C12.2398 -0.427974 14.7602 -0.427974 15.8369 1.28392L18.4409 5.42402C18.8197 6.02634 19.4216 6.45857 20.1181 6.62861L24.9059 7.79738C26.8857 8.28066 27.6645 10.6502 26.3502 12.1915L23.1718 15.919C22.7093 16.4613 22.4795 17.1607 22.5311 17.8681L22.8862 22.7305C23.033 24.7411 20.9939 26.2056 19.1049 25.4462L14.5366 23.6099C13.8719 23.3427 13.128 23.3427 12.4634 23.6099L7.89504 25.4462C6.00605 26.2056 3.96698 24.7411 4.1138 22.7305L4.46885 17.8681C4.52051 17.1607 4.29063 16.4613 3.82822 15.919L0.649744 12.1915C-0.664526 10.6502 0.114328 8.28066 2.09405 7.79738L6.88187 6.62861C7.57842 6.45857 8.18024 6.02634 8.55908 5.42402L11.1631 1.28392Z" fill="#FBBF24"/>
</svg>
