<svg width="34" height="34" viewBox="0 0 34 34" fill="none" xmlns="http://www.w3.org/2000/svg">
<path d="M16.9829 0C7.59896 0 0 7.61596 0 16.9999C0 26.3839 7.59896 33.9998 16.9829 33.9998C26.3839 33.9998 33.9998 26.3839 33.9998 16.9999C33.9998 7.61596 26.3839 0 16.9829 0ZM16.9999 30.5999C9.48595 30.5999 3.39998 24.5139 3.39998 16.9999C3.39998 9.48595 9.48595 3.39998 16.9999 3.39998C24.5139 3.39998 30.5999 9.48595 30.5999 16.9999C30.5999 24.5139 24.5139 30.5999 16.9999 30.5999ZM17.8499 8.49996H15.2999V18.6999L24.2249 24.0549L25.4999 21.9639L17.8499 17.4249V8.49996Z" fill="#94A3B8"/>
</svg>
