<svg width="30" height="35" viewBox="0 0 30 35" fill="none" xmlns="http://www.w3.org/2000/svg">
<path d="M26.6667 8.33333H23.3333C23.3333 3.73333 19.6 0 15 0C10.4 0 6.66667 3.73333 6.66667 8.33333H3.33333C1.5 8.33333 0 9.83333 0 11.6667V31.6667C0 33.5 1.5 35 3.33333 35H26.6667C28.5 35 30 33.5 30 31.6667V11.6667C30 9.83333 28.5 8.33333 26.6667 8.33333ZM15 3.33333C17.7667 3.33333 20 5.56667 20 8.33333H10C10 5.56667 12.2333 3.33333 15 3.33333ZM26.6667 31.6667H3.33333V11.6667H26.6667V31.6667ZM15 18.3333C12.2333 18.3333 10 16.1 10 13.3333H6.66667C6.66667 17.9333 10.4 21.6667 15 21.6667C19.6 21.6667 23.3333 17.9333 23.3333 13.3333H20C20 16.1 17.7667 18.3333 15 18.3333Z" fill="#3B82F6"/>
</svg>
