<svg width="34" height="32" viewBox="0 0 34 32" fill="none" xmlns="http://www.w3.org/2000/svg">
<path d="M3.36844 32.0002C2.44212 32.0002 1.64913 31.6703 0.989479 31.0107C0.329826 30.351 0 29.558 0 28.6317V10.1053C0 9.17899 0.329826 8.38601 0.989479 7.72636C1.64913 7.0667 2.44212 6.73688 3.36844 6.73688H10.1053V3.36844C10.1053 2.44212 10.4351 1.64913 11.0948 0.989479C11.7544 0.329826 12.5474 0 13.4738 0H20.2106C21.137 0 21.9299 0.329826 22.5896 0.989479C23.2492 1.64913 23.5791 2.44212 23.5791 3.36844V6.73688H30.3159C31.2423 6.73688 32.0353 7.0667 32.6949 7.72636C33.3546 8.38601 33.6844 9.17899 33.6844 10.1053V28.6317C33.6844 29.558 33.3546 30.351 32.6949 31.0107C32.0353 31.6703 31.2423 32.0002 30.3159 32.0002H3.36844ZM13.4738 6.73688H20.2106V3.36844H13.4738V6.73688ZM6.73688 10.1053H3.36844V28.6317H6.73688V10.1053ZM23.5791 28.6317V10.1053H10.1053V28.6317H23.5791ZM26.9475 10.1053V28.6317H30.3159V10.1053H26.9475Z" fill="#94A3B8"/>
</svg>
