<svg width="18" height="27" viewBox="0 0 18 27" fill="none" xmlns="http://www.w3.org/2000/svg">
<path d="M11.5875 27L1.5 16.5V13.5H6.75C8.075 13.5 9.21875 13.0687 10.1812 12.2062C11.1437 11.3437 11.725 10.275 11.925 9H0V6H11.475C11.05 5.125 10.4187 4.40625 9.58125 3.84375C8.74375 3.28125 7.8 3 6.75 3H0V0H18V3H13.125C13.475 3.425 13.7875 3.8875 14.0625 4.3875C14.3375 4.8875 14.55 5.425 14.7 6H18V9H14.9625C14.7625 11.125 13.8875 12.9062 12.3375 14.3437C10.7875 15.7812 8.925 16.5 6.75 16.5H5.6625L15.75 27H11.5875Z" fill="#00C16A"/>
</svg>
